<svg xmlns="http://www.w3.org/2000/svg" width="124" height="72" viewBox="0 0 124 72" role="img" aria-labelledby="title desc">
  <title id="title">多元拾光图形 Logo 反白版</title>
  <desc id="desc">多元探索家族符号与拾光闪点的纯图形反白标识，不包含背景、圆角底板或文字。</desc>
  <g transform="translate(0 10) scale(3.4)" fill="#ffffff">
    <g transform="matrix(1.3333333730697632,0,0,1.3333333730697632,0,0)">
      <path d="M0.40700721740722656,0L5.250757217407227,0L13.170898217407226,12.255303L8.389390517407227,12.255303L0.40700721740722656,0Z" fill-rule="evenodd"/>
      <path d="M6.61170768737793,0L11.51502798737793,0L12.68060348737793,1.9702779C12.53023628737793,2.7987287,12.13640018737793,3.5685937,11.51448438737793,4.2253523L10.96588468737793,4.8047295L11.745092887377929,4.6332574C12.75567768737793,4.4108939,13.73922348737793,4.520812,14.61394978737793,4.940259L19.37559268737793,12.255293L14.59405418737793,12.255293L6.61170768737793,0Z" fill-rule="evenodd"/>
      <path d="M0,6.865815162658691L3.9737513,6.865815162658691L3.9737513,12.255296262658693L0,12.255296262658693L0,6.865815162658691Z" fill-rule="evenodd"/>
    </g>
  </g>
  <path d="M104.72 1.84l2.94 9.29L117.6 14.72l-9.94 3.59-2.94 9.29-2.94-9.29-9.94-3.59 9.94-3.59 2.94-9.29Z" fill="#ffffff"/>
</svg>
