<svg xmlns="http://www.w3.org/2000/svg" width="64" height="64" viewBox="0 0 64 64" role="img" aria-labelledby="title desc">
  <title id="title">多元拾光浏览器图标</title>
  <desc id="desc">用于浏览器标签页的多元拾光图形标识。</desc>
  <rect width="64" height="64" fill="#050606"/>
  <g transform="translate(8 22) scale(2.45)" fill="#ffffff">
    <path d="M0.40700721740722656,0L5.250757217407227,0L13.170898217407226,12.255303L8.389390517407227,12.255303L0.40700721740722656,0Z" fill-rule="evenodd"/>
    <path d="M6.61170768737793,0L11.51502798737793,0L12.68060348737793,1.9702779C12.53023628737793,2.7987287,12.13640018737793,3.5685937,11.51448438737793,4.2253523L10.96588468737793,4.8047295L11.745092887377929,4.6332574C12.75567768737793,4.4108939,13.73922348737793,4.520812,14.61394978737793,4.940259L19.37559268737793,12.255293L14.59405418737793,12.255293L6.61170768737793,0Z" fill-rule="evenodd"/>
    <path d="M0,6.865815162658691L3.9737513,6.865815162658691L3.9737513,12.255296262658693L0,12.255296262658693L0,6.865815162658691Z" fill-rule="evenodd"/>
  </g>
  <path d="M51 7l1.9 6L59 15l-6.1 2L51 23l-1.9-6L43 15l6.1-2L51 7Z" fill="#ffffff"/>
</svg>
