<svg width="162" height="64" viewBox="0 0 162 64" fill="none" xmlns="http://www.w3.org/2000/svg">
<g clip-path="url(#clip0_264_139)">
<path fill-rule="evenodd" clip-rule="evenodd" d="M8.99707 22H20.8643L40.2686 52.0255H28.5539L8.99707 22Z" fill="white"/>
<path fill-rule="evenodd" clip-rule="evenodd" d="M24.1987 22H36.2119L39.0675 26.8272C38.6991 28.8569 37.7342 30.7431 36.2105 32.3521L34.8665 33.7716L36.7755 33.3515C39.2515 32.8067 41.6611 33.076 43.8042 34.1036L55.4703 52.0255H43.7555L24.1987 22Z" fill="white"/>
<path fill-rule="evenodd" clip-rule="evenodd" d="M8 38.8213H17.7357V52.0255H8V38.8213Z" fill="white"/>
<path d="M51 7L52.9 13L59 15L52.9 17L51 23L49.1 17L43 15L49.1 13L51 7Z" fill="#FFE20A"/>
</g>
<path opacity="0.6" d="M159.665 46.3199V46.9899H152.415V53.9099H159.865V54.5799H151.725V46.3199H159.665ZM152.765 52.8199C153.738 52.0799 154.688 51.2266 155.615 50.2599L155.655 50.2199C155.175 49.7266 154.731 49.2966 154.325 48.9299C153.925 48.5566 153.558 48.2433 153.225 47.9899L153.685 47.4999C154.345 48.0066 155.161 48.7433 156.135 49.7099C156.861 48.9166 157.498 48.1399 158.045 47.3799L158.595 47.8199C158.021 48.5999 157.368 49.3933 156.635 50.1999C157.681 51.2666 158.478 52.1633 159.025 52.8899L158.505 53.3999C158.225 53.0266 157.891 52.6233 157.505 52.1899C157.118 51.7499 156.665 51.2599 156.145 50.7199L156.105 50.7599C155.625 51.2666 155.148 51.7366 154.675 52.1699C154.201 52.6033 153.721 53.0099 153.235 53.3899L152.765 52.8199Z" fill="white"/>
<path opacity="0.6" d="M145.955 45.67V48.83H148.125V49.47H145.955V53.89H148.415V54.52H142.565V53.89H145.295V49.47H143.215V48.83H145.295V45.67H145.955ZM139.055 51.94C139.681 51.3934 140.245 50.8234 140.745 50.23C141.251 49.6367 141.648 49.0167 141.935 48.37H139.555V47.75H142.665V48.37C142.531 48.63 142.395 48.8867 142.255 49.14C142.115 49.3867 141.965 49.6267 141.805 49.86C141.865 49.9067 141.941 49.9667 142.035 50.04C142.128 50.1067 142.225 50.1834 142.325 50.27C142.431 50.35 142.535 50.4334 142.635 50.52C142.735 50.6067 142.825 50.6867 142.905 50.76C143.238 51.0734 143.498 51.3334 143.685 51.54L143.255 52C143.195 51.9334 143.101 51.8367 142.975 51.71C142.848 51.5767 142.705 51.4367 142.545 51.29C142.391 51.1367 142.235 50.9867 142.075 50.84C141.915 50.6867 141.775 50.5534 141.655 50.44V55.05H140.995V50.94C140.561 51.4534 140.065 51.9434 139.505 52.41L139.055 51.94ZM141.285 45.69C141.378 45.87 141.498 46.1467 141.645 46.52C141.718 46.6934 141.778 46.85 141.825 46.99C141.878 47.13 141.921 47.2534 141.955 47.36L141.355 47.57C141.321 47.4634 141.278 47.34 141.225 47.2C141.178 47.06 141.118 46.9034 141.045 46.73C140.905 46.37 140.785 46.09 140.685 45.89L141.285 45.69Z" fill="white"/>
<path opacity="0.6" d="M132.165 45.73V46.88H134.545V47.46H132.165V48.84H133.095C134.088 48.1 134.955 47.2233 135.695 46.21L136.205 46.6C135.898 47.0333 135.568 47.4333 135.215 47.8C134.868 48.1666 134.495 48.5133 134.095 48.84H136.895V49.42H133.335L133.075 49.6C132.561 49.9466 131.995 50.2833 131.375 50.61H135.445V54.79H129.735V51.4C129.475 51.5133 129.208 51.63 128.935 51.75C128.661 51.8633 128.375 51.9766 128.075 52.09L127.745 51.54C128.678 51.1933 129.518 50.8466 130.265 50.5C131.018 50.1466 131.681 49.7866 132.255 49.42H128.025V48.84H131.505V47.46H128.995V46.88H131.505V45.73H132.165ZM134.785 54.21V52.98H130.395V54.21H134.785ZM130.395 52.42H134.785V51.19H130.395V52.42Z" fill="white"/>
<path opacity="0.6" d="M119.795 46.3399V49.4199H118.945V50.9899H120.205V51.6099H118.945V53.5199C119.365 53.4399 119.721 53.3599 120.015 53.2799L120.025 53.4899L120.045 53.8399C120.838 53.5066 121.555 53.1166 122.195 52.6699C122.108 52.3833 122.025 52.0599 121.945 51.6999C121.871 51.3399 121.798 50.9333 121.725 50.4799L120.125 50.6999L120.065 50.1099L121.645 49.8899L121.595 49.4299C121.581 49.2966 121.565 49.1599 121.545 49.0199C121.531 48.8799 121.518 48.7333 121.505 48.5799L120.155 48.7399L120.095 48.1599L121.455 47.9999C121.428 47.6599 121.405 47.2999 121.385 46.9199C121.371 46.5399 121.358 46.1399 121.345 45.7199L121.965 45.6899C121.965 46.0966 121.971 46.4866 121.985 46.8599C121.998 47.2333 122.018 47.5899 122.045 47.9299L124.825 47.6099L124.905 48.1699L122.095 48.5099L122.155 49.0899L122.245 49.7999L125.345 49.3599L125.425 49.9499L122.335 50.3899C122.395 50.7699 122.458 51.1133 122.525 51.4199C122.598 51.7266 122.671 52.0066 122.745 52.2599C123.071 51.9999 123.375 51.7266 123.655 51.4399C123.941 51.1466 124.211 50.8366 124.465 50.5099L124.915 50.8999C124.615 51.2733 124.305 51.6233 123.985 51.9499C123.665 52.2699 123.318 52.5699 122.945 52.8499C122.998 52.9899 123.048 53.1166 123.095 53.2299C123.148 53.3366 123.201 53.4299 123.255 53.5099C123.408 53.7633 123.538 53.9399 123.645 54.0399C123.758 54.1466 123.885 54.1999 124.025 54.1999C124.118 54.1999 124.208 54.1399 124.295 54.0199C124.381 53.9066 124.465 53.7633 124.545 53.5899C124.618 53.4099 124.685 53.2233 124.745 53.0299C124.805 52.8299 124.848 52.6599 124.875 52.5199L125.475 52.8199C125.408 53.0399 125.345 53.2399 125.285 53.4199C125.225 53.5933 125.161 53.7533 125.095 53.8999C124.921 54.2866 124.745 54.5566 124.565 54.7099C124.391 54.8633 124.211 54.9399 124.025 54.9399C123.771 54.9399 123.545 54.8566 123.345 54.6899C123.145 54.5299 122.935 54.2633 122.715 53.8899C122.601 53.7033 122.495 53.4866 122.395 53.2399C121.748 53.6799 121.011 54.0766 120.185 54.4299L119.925 53.9399C119.698 53.9866 119.445 54.0333 119.165 54.0799C118.885 54.1333 118.568 54.1899 118.215 54.2499C117.461 54.3766 116.855 54.4666 116.395 54.5199L116.305 53.9199C116.471 53.9133 116.661 53.8933 116.875 53.8599V50.0899H117.435V53.7899C117.548 53.7699 117.661 53.7533 117.775 53.7399C117.895 53.7199 118.021 53.6966 118.155 53.6699L118.355 53.6399V49.4199H116.945V46.3399H119.795ZM117.525 48.8199H119.225V46.9399H117.525V48.8199ZM122.915 45.7999C123.148 45.9933 123.388 46.1999 123.635 46.4199C123.888 46.6399 124.108 46.8499 124.295 47.0499L123.915 47.4699C123.821 47.3699 123.711 47.2599 123.585 47.1399C123.465 47.0133 123.341 46.8899 123.215 46.7699C123.088 46.6499 122.965 46.5366 122.845 46.4299C122.725 46.3233 122.625 46.2399 122.545 46.1799L122.915 45.7999Z" fill="white"/>
<path opacity="0.6" d="M113.355 55.01C113.028 54.8233 112.715 54.65 112.415 54.49C112.115 54.33 111.818 54.1766 111.525 54.03C111.231 53.89 110.931 53.7566 110.625 53.63C110.325 53.4966 110.008 53.3633 109.675 53.23C109.281 53.6633 108.738 54.0233 108.045 54.31C107.351 54.6033 106.455 54.8633 105.355 55.09L105.095 54.43C105.735 54.31 106.295 54.18 106.775 54.04C107.255 53.9066 107.668 53.7566 108.015 53.59C108.368 53.4233 108.661 53.2366 108.895 53.03C109.135 52.8233 109.331 52.5933 109.485 52.34H104.955V51.69H109.775C109.861 51.4366 109.925 51.1633 109.965 50.87C110.005 50.57 110.031 50.2433 110.045 49.89C110.051 49.79 110.055 49.6533 110.055 49.48C110.061 49.3066 110.065 49.1266 110.065 48.94C110.071 48.7466 110.075 48.5666 110.075 48.4C110.081 48.2266 110.085 48.0933 110.085 48H110.755C110.748 48.2933 110.741 48.61 110.735 48.95C110.728 49.29 110.718 49.6333 110.705 49.98C110.691 50.3066 110.665 50.6133 110.625 50.9C110.591 51.18 110.541 51.4433 110.475 51.69H113.805V52.34H110.245C110.218 52.4066 110.188 52.47 110.155 52.53C110.121 52.59 110.088 52.65 110.055 52.71C110.321 52.8166 110.605 52.9366 110.905 53.07C111.211 53.1966 111.521 53.33 111.835 53.47C112.155 53.61 112.471 53.7566 112.785 53.91C113.098 54.0633 113.401 54.2166 113.695 54.37L113.355 55.01ZM109.285 46.94C109.211 46.7466 109.131 46.5533 109.045 46.36C108.958 46.1666 108.868 45.9866 108.775 45.82L109.405 45.6C109.445 45.68 109.488 45.7766 109.535 45.89C109.588 45.9966 109.641 46.1133 109.695 46.24C109.748 46.36 109.798 46.4833 109.845 46.61C109.898 46.73 109.945 46.84 109.985 46.94H113.425V48.91H112.775V47.55H106.015V48.89H105.375V46.94H109.285ZM108.405 51.44C108.025 51.1866 107.625 50.9366 107.205 50.69C106.785 50.4366 106.388 50.21 106.015 50.01L106.345 49.52C106.525 49.6133 106.718 49.7166 106.925 49.83C107.131 49.9433 107.338 50.06 107.545 50.18C107.758 50.3 107.965 50.4233 108.165 50.55C108.371 50.6766 108.558 50.7933 108.725 50.9L108.405 51.44ZM109.085 49.87C108.931 49.7566 108.755 49.6366 108.555 49.51C108.361 49.3833 108.165 49.26 107.965 49.14C107.765 49.0133 107.568 48.8966 107.375 48.79C107.181 48.6766 107.011 48.58 106.865 48.5L107.205 48C107.351 48.08 107.521 48.1766 107.715 48.29C107.915 48.3966 108.115 48.5133 108.315 48.64C108.515 48.76 108.711 48.88 108.905 49C109.098 49.12 109.271 49.23 109.425 49.33L109.085 49.87Z" fill="white"/>
<path opacity="0.6" d="M98.4346 45.72V47.77H101.985V48.42H98.4346V50.59H101.645V51.27H98.4346V53.87H102.375V54.53H93.6246V53.87H97.7546V51.27H94.5346V50.59H97.7546V48.42H95.2346C94.9213 49.1 94.5413 49.7633 94.0946 50.41L93.4946 50.07C93.928 49.47 94.298 48.8466 94.6046 48.2C94.918 47.5466 95.1713 46.8466 95.3646 46.1L96.0446 46.22C95.9713 46.4866 95.888 46.75 95.7946 47.01C95.708 47.2633 95.6146 47.5166 95.5146 47.77H97.7546V45.72H98.4346Z" fill="white"/>
<path opacity="0.6" d="M85.6744 54.22C85.8344 54.2333 85.9977 54.2433 86.1644 54.25C86.331 54.2567 86.4977 54.2567 86.6644 54.25C86.7777 54.25 86.8677 54.2433 86.9344 54.23C87.001 54.2167 87.051 54.19 87.0844 54.15C87.1244 54.11 87.1477 54.0567 87.1544 53.99C87.1677 53.9167 87.1744 53.82 87.1744 53.7V51.56H84.7244V47.91H86.6444C86.7177 47.7433 86.7844 47.57 86.8444 47.39C86.911 47.21 86.9677 47.0367 87.0144 46.87H83.5944V49.53C83.5944 50.2433 83.5744 50.87 83.5344 51.41C83.501 51.95 83.441 52.4133 83.3544 52.8C83.2677 53.1867 83.151 53.5667 83.0044 53.94C82.8577 54.3133 82.6477 54.7233 82.3744 55.17L81.7344 54.85C81.9744 54.45 82.1777 54.0467 82.3444 53.64C82.5177 53.2333 82.641 52.8633 82.7144 52.53C82.861 51.8767 82.9344 50.8833 82.9344 49.55V46.25H90.9344V46.87H87.6844C87.6444 47.03 87.5944 47.2 87.5344 47.38C87.481 47.56 87.4177 47.7367 87.3444 47.91H90.1044V51.56H87.8244V53.82C87.8244 54.0267 87.811 54.1933 87.7844 54.32C87.7577 54.4467 87.7044 54.55 87.6244 54.63C87.551 54.71 87.4477 54.7667 87.3144 54.8C87.1877 54.84 87.021 54.8733 86.8144 54.9C86.661 54.9133 86.4977 54.9233 86.3244 54.93C86.151 54.9367 85.971 54.94 85.7844 54.94L85.6744 54.22ZM89.4944 50.98V49.99H85.3544V50.98H89.4944ZM85.3544 49.43H89.4944V48.45H85.3544V49.43ZM83.5144 54.24C83.6477 54.12 83.8044 53.9767 83.9844 53.81C84.1644 53.6433 84.3577 53.4433 84.5644 53.21C84.771 52.9767 84.951 52.7633 85.1044 52.57C85.2577 52.3767 85.391 52.2 85.5044 52.04L86.0444 52.42C85.931 52.5867 85.7877 52.7733 85.6144 52.98C85.4477 53.1867 85.2577 53.4133 85.0444 53.66C84.831 53.8933 84.6377 54.0933 84.4644 54.26C84.291 54.4267 84.1344 54.5767 83.9944 54.71L83.5144 54.24ZM88.9844 52.12C89.2644 52.34 89.6177 52.6633 90.0444 53.09C90.2577 53.3033 90.4477 53.4967 90.6144 53.67C90.7877 53.8433 90.931 53.9967 91.0444 54.13L90.5544 54.59C90.441 54.4367 90.3044 54.2733 90.1444 54.1C89.991 53.9267 89.8077 53.7367 89.5944 53.53C89.381 53.3167 89.1877 53.13 89.0144 52.97C88.841 52.8033 88.6844 52.6633 88.5444 52.55L88.9844 52.12Z" fill="white"/>
<path opacity="0.6" d="M79.0144 46.67V54.54H78.2744V46.67H79.0144Z" fill="white"/>
<path opacity="0.6" d="M74.04 52.09H70.81L69.96 54.54H69.21L72.06 46.67H72.84L75.69 54.54H74.89L74.04 52.09ZM73.81 51.42L72.43 47.43L71.05 51.42H73.81Z" fill="white"/>
<g clip-path="url(#clip1_264_139)">
<path d="M78.1525 36.5517L76.4511 33.2933C74.6237 34.9108 72.3091 36.0925 69.5086 36.8368L69.7659 33.721C70.9239 33.3084 71.9409 32.8327 72.817 32.294C73.693 31.7553 74.4609 31.1206 75.1234 30.3913C73.5013 30.6614 71.5631 30.8437 69.3074 30.9383L69.5387 28.1322C73.0223 27.9417 75.8981 27.5222 78.1689 26.8711L76.6769 23.9458C75.0453 25.2933 73.0072 26.3008 70.5612 26.9657L70.8172 23.8745C72.1572 23.3673 73.3083 22.7573 74.2692 22.0431C75.2301 21.3303 76.0692 20.4736 76.7851 19.4742H89.9897C89.2396 21.8526 88.0652 23.843 86.4692 25.4441C84.8718 27.0452 82.7543 28.2981 80.1153 29.2015H89.757C88.9481 31.7073 87.6765 33.7923 85.9395 35.4564C84.2025 37.1219 81.8674 38.4174 78.9327 39.3454C75.998 40.2734 72.3543 40.8231 68.0029 40.9986L68.2452 38.0733C72.2681 37.8677 75.5709 37.3605 78.1552 36.5517H78.1525ZM79.8676 33.0315L81.0803 35.3152C82.6188 34.5065 83.8699 33.4523 84.8322 32.1514H77.5653C77.2669 32.501 76.9904 32.793 76.733 33.0315H79.8676ZM79.6814 23.2097L81.0091 25.8252C82.7886 24.9849 84.2039 23.8512 85.2565 22.4242H78.2264C77.9129 22.7738 77.6693 23.0342 77.4968 23.2097H79.6814Z" fill="white"/>
<path d="M105.09 30.416H101.148C100.842 32.9684 99.898 35.1535 98.3143 36.9684C96.732 38.7834 94.546 40.0884 91.7578 40.8807L92.0302 37.5743C93.7877 37.0041 95.1839 36.0966 96.2214 34.8505C97.2576 33.6059 97.8872 32.1268 98.1076 30.4146H92.835L93.0883 27.3468H114.035L113.782 30.4146H108.176L107.599 37.4071H113.654L113.393 40.5709H104.249L105.088 30.416H105.09ZM95.4987 20.0226H112.834L112.581 23.0904H95.2455L95.4987 20.0226Z" fill="white"/>
<path d="M116.261 30.6066L118.779 30.0117L119.149 25.5401H116.916L117.164 22.5436H119.397L119.669 19.2372H122.756L122.483 22.5436H124.36L124.112 25.5401H122.235L121.927 29.2742L124.082 28.7752L123.81 32.0816L121.655 32.5806L120.979 40.7615H116.062L116.3 37.8842H118.129L118.507 33.3181L115.988 33.913L116.261 30.6066ZM124.405 24.8739C126.34 23.4784 127.889 21.6004 129.051 19.2372H134.75C135.465 21.5045 136.695 23.3839 138.44 24.8739L138.134 28.5847C137.051 27.8869 136.118 27.1179 135.332 26.2776L135.125 28.7752H127.074L127.281 26.2776C126.357 27.1179 125.296 27.8869 124.098 28.5847L124.405 24.8739ZM125.152 30.7725H136.717L135.901 40.6423H124.337L125.152 30.7725ZM133.11 37.6457L133.431 33.7691H127.968L127.648 37.6457H133.11ZM134.917 25.8253C133.977 24.7478 133.23 23.5415 132.675 22.2105H130.61C129.783 23.5895 128.837 24.7944 127.769 25.8253H134.917Z" fill="white"/>
<path d="M144.077 34.9698C145.244 33.7882 145.98 32.2077 146.285 30.2255H139.897L140.15 27.1576H149.531L150.204 19H153.291L152.617 27.1576H161.997L161.744 30.2255H155.926L155.338 37.3372H161.157L160.904 40.4051H151.998L152.839 30.2255H149.324C148.947 33.0644 147.878 35.3715 146.117 37.1467C144.355 38.9219 142.064 40.2063 139.244 41L139.519 37.6703C141.39 37.0521 142.91 36.1528 144.076 34.9712L144.077 34.9698ZM145.668 19.5949L146.831 25.6361H143.601L142.438 19.5949H145.668ZM157.732 19.5949H160.963L158.801 25.6361H155.571L157.732 19.5949Z" fill="white"/>
</g>
<defs>
<clipPath id="clip0_264_139">
<rect width="64" height="64" fill="white"/>
</clipPath>
<clipPath id="clip1_264_139">
<rect width="94" height="22" fill="white" transform="translate(68 19)"/>
</clipPath>
</defs>
</svg>
